<svg xmlns="http://www.w3.org/2000/svg" width="1280" height="800" viewBox="0 0 1280 800">
  <rect width="1280" height="800" fill="#111014"/>
  <circle cx="70" cy="70" r="1.1" fill="#f3eee3" opacity="0.06"/><circle cx="112" cy="70" r="1.1" fill="#f3eee3" opacity="0.06"/><circle cx="154" cy="70" r="1.1" fill="#f3eee3" opacity="0.06"/><circle cx="196" cy="70" r="1.1" fill="#f3eee3" opacity="0.06"/><circle cx="238" cy="70" r="1.1" fill="#f3eee3" opacity="0.06"/><circle cx="280" cy="70" r="1.1" fill="#f3eee3" opacity="0.06"/><circle cx="322" cy="70" r="1.1" fill="#f3eee3" opacity="0.06"/><circle cx="364" cy="70" r="1.1" fill="#f3eee3" opacity="0.06"/><circle cx="406" cy="70" r="1.1" fill="#f3eee3" opacity="0.06"/><circle cx="448" cy="70" r="1.1" fill="#f3eee3" opacity="0.06"/><circle cx="490" cy="70" r="1.1" fill="#f3eee3" opacity="0.06"/><circle cx="532" cy="70" r="1.1" fill="#f3eee3" opacity="0.06"/><circle cx="574" cy="70" r="1.1" fill="#f3eee3" opacity="0.06"/><circle cx="616" cy="70" r="1.1" fill="#f3eee3" opacity="0.06"/><circle cx="658" cy="70" r="1.1" fill="#f3eee3" opacity="0.06"/><circle cx="700" cy="70" r="1.1" fill="#f3eee3" opacity="0.06"/><circle cx="742" cy="70" r="1.1" fill="#f3eee3" opacity="0.06"/><circle cx="784" cy="70" r="1.1" fill="#f3eee3" opacity="0.06"/><circle cx="826" cy="70" r="1.1" fill="#f3eee3" opacity="0.06"/><circle cx="868" cy="70" r="1.1" fill="#f3eee3" opacity="0.06"/><circle cx="910" cy="70" r="1.1" fill="#f3eee3" opacity="0.06"/><circle cx="952" cy="70" r="1.1" fill="#f3eee3" opacity="0.06"/><circle cx="994" cy="70" r="1.1" fill="#f3eee3" opacity="0.06"/><circle cx="1036" cy="70" r="1.1" fill="#f3eee3" opacity="0.06"/><circle cx="1078" cy="70" r="1.1" fill="#f3eee3" opacity="0.06"/><circle cx="1120" cy="70" r="1.1" fill="#f3eee3" opacity="0.06"/><circle cx="1162" cy="70" r="1.1" fill="#f3eee3" opacity="0.06"/><circle cx="1204" cy="70" r="1.1" fill="#f3eee3" opacity="0.06"/><circle cx="1246" cy="70" r="1.1" fill="#f3eee3" opacity="0.06"/><circle cx="70" cy="112" r="1.1" fill="#f3eee3" opacity="0.06"/><circle cx="112" cy="112" r="1.1" fill="#f3eee3" opacity="0.06"/><circle cx="154" cy="112" r="1.1" fill="#f3eee3" opacity="0.06"/><circle cx="196" cy="112" r="1.1" fill="#f3eee3" opacity="0.06"/><circle cx="238" cy="112" r="1.1" fill="#f3eee3" opacity="0.06"/><circle cx="280" cy="112" r="1.1" fill="#f3eee3" opacity="0.06"/><circle cx="322" cy="112" r="1.1" fill="#f3eee3" opacity="0.06"/><circle cx="364" cy="112" r="1.1" fill="#f3eee3" opacity="0.06"/><circle cx="406" cy="112" r="1.1" fill="#f3eee3" opacity="0.06"/><circle cx="448" cy="112" r="1.1" fill="#f3eee3" opacity="0.06"/><circle cx="490" cy="112" r="1.1" fill="#f3eee3" opacity="0.06"/><circle cx="532" cy="112" r="1.1" fill="#f3eee3" opacity="0.06"/><circle cx="574" cy="112" r="1.1" fill="#f3eee3" opacity="0.06"/><circle cx="616" cy="112" r="1.1" fill="#f3eee3" opacity="0.06"/><circle cx="658" cy="112" r="1.1" fill="#f3eee3" opacity="0.06"/><circle cx="700" cy="112" r="1.1" fill="#f3eee3" opacity="0.06"/><circle cx="742" cy="112" r="1.1" fill="#f3eee3" opacity="0.06"/><circle cx="784" cy="112" r="1.1" fill="#f3eee3" opacity="0.06"/><circle cx="826" cy="112" r="1.1" fill="#f3eee3" opacity="0.06"/><circle cx="868" cy="112" r="1.1" fill="#f3eee3" opacity="0.06"/><circle cx="910" cy="112" r="1.1" fill="#f3eee3" opacity="0.06"/><circle cx="952" cy="112" r="1.1" fill="#f3eee3" opacity="0.06"/><circle cx="994" cy="112" r="1.1" fill="#f3eee3" opacity="0.06"/><circle cx="1036" cy="112" r="1.1" fill="#f3eee3" opacity="0.06"/><circle cx="1078" cy="112" r="1.1" fill="#f3eee3" opacity="0.06"/><circle cx="1120" cy="112" r="1.1" fill="#f3eee3" opacity="0.06"/><circle cx="1162" cy="112" r="1.1" fill="#f3eee3" opacity="0.06"/><circle cx="1204" cy="112" r="1.1" fill="#f3eee3" opacity="0.06"/><circle cx="1246" cy="112" r="1.1" fill="#f3eee3" opacity="0.06"/><circle cx="70" cy="154" r="1.1" fill="#f3eee3" opacity="0.06"/><circle cx="112" cy="154" r="1.1" fill="#f3eee3" opacity="0.06"/><circle cx="154" cy="154" r="1.1" fill="#f3eee3" opacity="0.06"/><circle cx="196" cy="154" r="1.1" fill="#f3eee3" opacity="0.06"/><circle cx="238" cy="154" r="1.1" fill="#f3eee3" opacity="0.06"/><circle cx="280" cy="154" r="1.1" fill="#f3eee3" opacity="0.06"/><circle cx="322" cy="154" r="1.1" fill="#f3eee3" opacity="0.06"/><circle cx="364" cy="154" r="1.1" fill="#f3eee3" opacity="0.06"/><circle cx="406" cy="154" r="1.1" fill="#f3eee3" opacity="0.06"/><circle cx="448" cy="154" r="1.1" fill="#f3eee3" opacity="0.06"/><circle cx="490" cy="154" r="1.1" fill="#f3eee3" opacity="0.06"/><circle cx="532" cy="154" r="1.1" fill="#f3eee3" opacity="0.06"/><circle cx="574" cy="154" r="1.1" fill="#f3eee3" opacity="0.06"/><circle cx="616" cy="154" r="1.1" fill="#f3eee3" opacity="0.06"/><circle cx="658" cy="154" r="1.1" fill="#f3eee3" opacity="0.06"/><circle cx="700" cy="154" r="1.1" fill="#f3eee3" opacity="0.06"/><circle cx="742" cy="154" r="1.1" fill="#f3eee3" opacity="0.06"/><circle cx="784" cy="154" r="1.1" fill="#f3eee3" opacity="0.06"/><circle cx="826" cy="154" r="1.1" fill="#f3eee3" opacity="0.06"/><circle cx="868" cy="154" r="1.1" fill="#f3eee3" opacity="0.06"/><circle cx="910" cy="154" r="1.1" fill="#f3eee3" opacity="0.06"/><circle cx="952" cy="154" r="1.1" fill="#f3eee3" opacity="0.06"/><circle cx="994" cy="154" r="1.1" fill="#f3eee3" opacity="0.06"/><circle cx="1036" cy="154" r="1.1" fill="#f3eee3" opacity="0.06"/><circle cx="1078" cy="154" r="1.1" fill="#f3eee3" opacity="0.06"/><circle cx="1120" cy="154" r="1.1" fill="#f3eee3" opacity="0.06"/><circle cx="1162" cy="154" r="1.1" fill="#f3eee3" opacity="0.06"/><circle cx="1204" cy="154" r="1.1" fill="#f3eee3" opacity="0.06"/><circle cx="1246" cy="154" r="1.1" fill="#f3eee3" opacity="0.06"/><circle cx="70" cy="196" r="1.1" fill="#f3eee3" opacity="0.06"/><circle cx="112" cy="196" r="1.1" fill="#f3eee3" opacity="0.06"/><circle cx="154" cy="196" r="1.1" fill="#f3eee3" opacity="0.06"/><circle cx="196" cy="196" r="1.1" fill="#f3eee3" opacity="0.06"/><circle cx="238" cy="196" r="1.1" fill="#f3eee3" opacity="0.06"/><circle cx="280" cy="196" r="1.1" fill="#f3eee3" opacity="0.06"/><circle cx="322" cy="196" r="1.1" fill="#f3eee3" opacity="0.06"/><circle cx="364" cy="196" r="1.1" fill="#f3eee3" opacity="0.06"/><circle cx="406" cy="196" r="1.1" fill="#f3eee3" opacity="0.06"/><circle cx="448" cy="196" r="1.1" fill="#f3eee3" opacity="0.06"/><circle cx="490" cy="196" r="1.1" fill="#f3eee3" opacity="0.06"/><circle cx="532" cy="196" r="1.1" fill="#f3eee3" opacity="0.06"/><circle cx="574" cy="196" r="1.1" fill="#f3eee3" opacity="0.06"/><circle cx="616" cy="196" r="1.1" fill="#f3eee3" opacity="0.06"/><circle cx="658" cy="196" r="1.1" fill="#f3eee3" opacity="0.06"/><circle cx="700" cy="196" r="1.1" fill="#f3eee3" opacity="0.06"/><circle cx="742" cy="196" r="1.1" fill="#f3eee3" opacity="0.06"/><circle cx="784" cy="196" r="1.1" fill="#f3eee3" opacity="0.06"/><circle cx="826" cy="196" r="1.1" fill="#f3eee3" opacity="0.06"/><circle cx="868" cy="196" r="1.1" fill="#f3eee3" opacity="0.06"/><circle cx="910" cy="196" r="1.1" fill="#f3eee3" opacity="0.06"/><circle cx="952" cy="196" r="1.1" fill="#f3eee3" opacity="0.06"/><circle cx="994" cy="196" r="1.1" fill="#f3eee3" opacity="0.06"/><circle cx="1036" cy="196" r="1.1" fill="#f3eee3" opacity="0.06"/><circle cx="1078" cy="196" r="1.1" fill="#f3eee3" opacity="0.06"/><circle cx="1120" cy="196" r="1.1" fill="#f3eee3" opacity="0.06"/><circle cx="1162" cy="196" r="1.1" fill="#f3eee3" opacity="0.06"/><circle cx="1204" cy="196" r="1.1" fill="#f3eee3" opacity="0.06"/><circle cx="1246" cy="196" r="1.1" fill="#f3eee3" opacity="0.06"/><circle cx="70" cy="238" r="1.1" fill="#f3eee3" opacity="0.06"/><circle cx="112" cy="238" r="1.1" fill="#f3eee3" opacity="0.06"/><circle cx="154" cy="238" r="1.1" fill="#f3eee3" opacity="0.06"/><circle cx="196" cy="238" r="1.1" fill="#f3eee3" opacity="0.06"/><circle cx="238" cy="238" r="1.1" fill="#f3eee3" opacity="0.06"/><circle cx="280" cy="238" r="1.1" fill="#f3eee3" opacity="0.06"/><circle cx="322" cy="238" r="1.1" fill="#f3eee3" opacity="0.06"/><circle cx="364" cy="238" r="1.1" fill="#f3eee3" opacity="0.06"/><circle cx="406" cy="238" r="1.1" fill="#f3eee3" opacity="0.06"/><circle cx="448" cy="238" r="1.1" fill="#f3eee3" opacity="0.06"/><circle cx="490" cy="238" r="1.1" fill="#f3eee3" opacity="0.06"/><circle cx="532" cy="238" r="1.1" fill="#f3eee3" opacity="0.06"/><circle cx="574" cy="238" r="1.1" fill="#f3eee3" opacity="0.06"/><circle cx="616" cy="238" r="1.1" fill="#f3eee3" opacity="0.06"/><circle cx="658" cy="238" r="1.1" fill="#f3eee3" opacity="0.06"/><circle cx="700" cy="238" r="1.1" fill="#f3eee3" opacity="0.06"/><circle cx="742" cy="238" r="1.1" fill="#f3eee3" opacity="0.06"/><circle cx="784" cy="238" r="1.1" fill="#f3eee3" opacity="0.06"/><circle cx="826" cy="238" r="1.1" fill="#f3eee3" opacity="0.06"/><circle cx="868" cy="238" r="1.1" fill="#f3eee3" opacity="0.06"/><circle cx="910" cy="238" r="1.1" fill="#f3eee3" opacity="0.06"/><circle cx="952" cy="238" r="1.1" fill="#f3eee3" opacity="0.06"/><circle cx="994" cy="238" r="1.1" fill="#f3eee3" opacity="0.06"/><circle cx="1036" cy="238" r="1.1" fill="#f3eee3" opacity="0.06"/><circle cx="1078" cy="238" r="1.1" fill="#f3eee3" opacity="0.06"/><circle cx="1120" cy="238" r="1.1" fill="#f3eee3" opacity="0.06"/><circle cx="1162" cy="238" r="1.1" fill="#f3eee3" opacity="0.06"/><circle cx="1204" cy="238" r="1.1" fill="#f3eee3" opacity="0.06"/><circle cx="1246" cy="238" r="1.1" fill="#f3eee3" opacity="0.06"/><circle cx="70" cy="280" r="1.1" fill="#f3eee3" opacity="0.06"/><circle cx="112" cy="280" r="1.1" fill="#f3eee3" opacity="0.06"/><circle cx="154" cy="280" r="1.1" fill="#f3eee3" opacity="0.06"/><circle cx="196" cy="280" r="1.1" fill="#f3eee3" opacity="0.06"/><circle cx="238" cy="280" r="1.1" fill="#f3eee3" opacity="0.06"/><circle cx="280" cy="280" r="1.1" fill="#f3eee3" opacity="0.06"/><circle cx="322" cy="280" r="1.1" fill="#f3eee3" opacity="0.06"/><circle cx="364" cy="280" r="1.1" fill="#f3eee3" opacity="0.06"/><circle cx="406" cy="280" r="1.1" fill="#f3eee3" opacity="0.06"/><circle cx="448" cy="280" r="1.1" fill="#f3eee3" opacity="0.06"/><circle cx="490" cy="280" r="1.1" fill="#f3eee3" opacity="0.06"/><circle cx="532" cy="280" r="1.1" fill="#f3eee3" opacity="0.06"/><circle cx="574" cy="280" r="1.1" fill="#f3eee3" opacity="0.06"/><circle cx="616" cy="280" r="1.1" fill="#f3eee3" opacity="0.06"/><circle cx="658" cy="280" r="1.1" fill="#f3eee3" opacity="0.06"/><circle cx="700" cy="280" r="1.1" fill="#f3eee3" opacity="0.06"/><circle cx="742" cy="280" r="1.1" fill="#f3eee3" opacity="0.06"/><circle cx="784" cy="280" r="1.1" fill="#f3eee3" opacity="0.06"/><circle cx="826" cy="280" r="1.1" fill="#f3eee3" opacity="0.06"/><circle cx="868" cy="280" r="1.1" fill="#f3eee3" opacity="0.06"/><circle cx="910" cy="280" r="1.1" fill="#f3eee3" opacity="0.06"/><circle cx="952" cy="280" r="1.1" fill="#f3eee3" opacity="0.06"/><circle cx="994" cy="280" r="1.1" fill="#f3eee3" opacity="0.06"/><circle cx="1036" cy="280" r="1.1" fill="#f3eee3" opacity="0.06"/><circle cx="1078" cy="280" r="1.1" fill="#f3eee3" opacity="0.06"/><circle cx="1120" cy="280" r="1.1" fill="#f3eee3" opacity="0.06"/><circle cx="1162" cy="280" r="1.1" fill="#f3eee3" opacity="0.06"/><circle cx="1204" cy="280" r="1.1" fill="#f3eee3" opacity="0.06"/><circle cx="1246" cy="280" r="1.1" fill="#f3eee3" opacity="0.06"/><circle cx="70" cy="322" r="1.1" fill="#f3eee3" opacity="0.06"/><circle cx="112" cy="322" r="1.1" fill="#f3eee3" opacity="0.06"/><circle cx="154" cy="322" r="1.1" fill="#f3eee3" opacity="0.06"/><circle cx="196" cy="322" r="1.1" fill="#f3eee3" opacity="0.06"/><circle cx="238" cy="322" r="1.1" fill="#f3eee3" opacity="0.06"/><circle cx="280" cy="322" r="1.1" fill="#f3eee3" opacity="0.06"/><circle cx="322" cy="322" r="1.1" fill="#f3eee3" opacity="0.06"/><circle cx="364" cy="322" r="1.1" fill="#f3eee3" opacity="0.06"/><circle cx="406" cy="322" r="1.1" fill="#f3eee3" opacity="0.06"/><circle cx="448" cy="322" r="1.1" fill="#f3eee3" opacity="0.06"/><circle cx="490" cy="322" r="1.1" fill="#f3eee3" opacity="0.06"/><circle cx="532" cy="322" r="1.1" fill="#f3eee3" opacity="0.06"/><circle cx="574" cy="322" r="1.1" fill="#f3eee3" opacity="0.06"/><circle cx="616" cy="322" r="1.1" fill="#f3eee3" opacity="0.06"/><circle cx="658" cy="322" r="1.1" fill="#f3eee3" opacity="0.06"/><circle cx="700" cy="322" r="1.1" fill="#f3eee3" opacity="0.06"/><circle cx="742" cy="322" r="1.1" fill="#f3eee3" opacity="0.06"/><circle cx="784" cy="322" r="1.1" fill="#f3eee3" opacity="0.06"/><circle cx="826" cy="322" r="1.1" fill="#f3eee3" opacity="0.06"/><circle cx="868" cy="322" r="1.1" fill="#f3eee3" opacity="0.06"/><circle cx="910" cy="322" r="1.1" fill="#f3eee3" opacity="0.06"/><circle cx="952" cy="322" r="1.1" fill="#f3eee3" opacity="0.06"/><circle cx="994" cy="322" r="1.1" fill="#f3eee3" opacity="0.06"/><circle cx="1036" cy="322" r="1.1" fill="#f3eee3" opacity="0.06"/><circle cx="1078" cy="322" r="1.1" fill="#f3eee3" opacity="0.06"/><circle cx="1120" cy="322" r="1.1" fill="#f3eee3" opacity="0.06"/><circle cx="1162" cy="322" r="1.1" fill="#f3eee3" opacity="0.06"/><circle cx="1204" cy="322" r="1.1" fill="#f3eee3" opacity="0.06"/><circle cx="1246" cy="322" r="1.1" fill="#f3eee3" opacity="0.06"/><circle cx="70" cy="364" r="1.1" fill="#f3eee3" opacity="0.06"/><circle cx="112" cy="364" r="1.1" fill="#f3eee3" opacity="0.06"/><circle cx="154" cy="364" r="1.1" fill="#f3eee3" opacity="0.06"/><circle cx="196" cy="364" r="1.1" fill="#f3eee3" opacity="0.06"/><circle cx="238" cy="364" r="1.1" fill="#f3eee3" opacity="0.06"/><circle cx="280" cy="364" r="1.1" fill="#f3eee3" opacity="0.06"/><circle cx="322" cy="364" r="1.1" fill="#f3eee3" opacity="0.06"/><circle cx="364" cy="364" r="1.1" fill="#f3eee3" opacity="0.06"/><circle cx="406" cy="364" r="1.1" fill="#f3eee3" opacity="0.06"/><circle cx="448" cy="364" r="1.1" fill="#f3eee3" opacity="0.06"/><circle cx="490" cy="364" r="1.1" fill="#f3eee3" opacity="0.06"/><circle cx="532" cy="364" r="1.1" fill="#f3eee3" opacity="0.06"/><circle cx="574" cy="364" r="1.1" fill="#f3eee3" opacity="0.06"/><circle cx="616" cy="364" r="1.1" fill="#f3eee3" opacity="0.06"/><circle cx="658" cy="364" r="1.1" fill="#f3eee3" opacity="0.06"/><circle cx="700" cy="364" r="1.1" fill="#f3eee3" opacity="0.06"/><circle cx="742" cy="364" r="1.1" fill="#f3eee3" opacity="0.06"/><circle cx="784" cy="364" r="1.1" fill="#f3eee3" opacity="0.06"/><circle cx="826" cy="364" r="1.1" fill="#f3eee3" opacity="0.06"/><circle cx="868" cy="364" r="1.1" fill="#f3eee3" opacity="0.06"/><circle cx="910" cy="364" r="1.1" fill="#f3eee3" opacity="0.06"/><circle cx="952" cy="364" r="1.1" fill="#f3eee3" opacity="0.06"/><circle cx="994" cy="364" r="1.1" fill="#f3eee3" opacity="0.06"/><circle cx="1036" cy="364" r="1.1" fill="#f3eee3" opacity="0.06"/><circle cx="1078" cy="364" r="1.1" fill="#f3eee3" opacity="0.06"/><circle cx="1120" cy="364" r="1.1" fill="#f3eee3" opacity="0.06"/><circle cx="1162" cy="364" r="1.1" fill="#f3eee3" opacity="0.06"/><circle cx="1204" cy="364" r="1.1" fill="#f3eee3" opacity="0.06"/><circle cx="1246" cy="364" r="1.1" fill="#f3eee3" opacity="0.06"/><circle cx="70" cy="406" r="1.1" fill="#f3eee3" opacity="0.06"/><circle cx="112" cy="406" r="1.1" fill="#f3eee3" opacity="0.06"/><circle cx="154" cy="406" r="1.1" fill="#f3eee3" opacity="0.06"/><circle cx="196" cy="406" r="1.1" fill="#f3eee3" opacity="0.06"/><circle cx="238" cy="406" r="1.1" fill="#f3eee3" opacity="0.06"/><circle cx="280" cy="406" r="1.1" fill="#f3eee3" opacity="0.06"/><circle cx="322" cy="406" r="1.1" fill="#f3eee3" opacity="0.06"/><circle cx="364" cy="406" r="1.1" fill="#f3eee3" opacity="0.06"/><circle cx="406" cy="406" r="1.1" fill="#f3eee3" opacity="0.06"/><circle cx="448" cy="406" r="1.1" fill="#f3eee3" opacity="0.06"/><circle cx="490" cy="406" r="1.1" fill="#f3eee3" opacity="0.06"/><circle cx="532" cy="406" r="1.1" fill="#f3eee3" opacity="0.06"/><circle cx="574" cy="406" r="1.1" fill="#f3eee3" opacity="0.06"/><circle cx="616" cy="406" r="1.1" fill="#f3eee3" opacity="0.06"/><circle cx="658" cy="406" r="1.1" fill="#f3eee3" opacity="0.06"/><circle cx="700" cy="406" r="1.1" fill="#f3eee3" opacity="0.06"/><circle cx="742" cy="406" r="1.1" fill="#f3eee3" opacity="0.06"/><circle cx="784" cy="406" r="1.1" fill="#f3eee3" opacity="0.06"/><circle cx="826" cy="406" r="1.1" fill="#f3eee3" opacity="0.06"/><circle cx="868" cy="406" r="1.1" fill="#f3eee3" opacity="0.06"/><circle cx="910" cy="406" r="1.1" fill="#f3eee3" opacity="0.06"/><circle cx="952" cy="406" r="1.1" fill="#f3eee3" opacity="0.06"/><circle cx="994" cy="406" r="1.1" fill="#f3eee3" opacity="0.06"/><circle cx="1036" cy="406" r="1.1" fill="#f3eee3" opacity="0.06"/><circle cx="1078" cy="406" r="1.1" fill="#f3eee3" opacity="0.06"/><circle cx="1120" cy="406" r="1.1" fill="#f3eee3" opacity="0.06"/><circle cx="1162" cy="406" r="1.1" fill="#f3eee3" opacity="0.06"/><circle cx="1204" cy="406" r="1.1" fill="#f3eee3" opacity="0.06"/><circle cx="1246" cy="406" r="1.1" fill="#f3eee3" opacity="0.06"/><circle cx="70" cy="448" r="1.1" fill="#f3eee3" opacity="0.06"/><circle cx="112" cy="448" r="1.1" fill="#f3eee3" opacity="0.06"/><circle cx="154" cy="448" r="1.1" fill="#f3eee3" opacity="0.06"/><circle cx="196" cy="448" r="1.1" fill="#f3eee3" opacity="0.06"/><circle cx="238" cy="448" r="1.1" fill="#f3eee3" opacity="0.06"/><circle cx="280" cy="448" r="1.1" fill="#f3eee3" opacity="0.06"/><circle cx="322" cy="448" r="1.1" fill="#f3eee3" opacity="0.06"/><circle cx="364" cy="448" r="1.1" fill="#f3eee3" opacity="0.06"/><circle cx="406" cy="448" r="1.1" fill="#f3eee3" opacity="0.06"/><circle cx="448" cy="448" r="1.1" fill="#f3eee3" opacity="0.06"/><circle cx="490" cy="448" r="1.1" fill="#f3eee3" opacity="0.06"/><circle cx="532" cy="448" r="1.1" fill="#f3eee3" opacity="0.06"/><circle cx="574" cy="448" r="1.1" fill="#f3eee3" opacity="0.06"/><circle cx="616" cy="448" r="1.1" fill="#f3eee3" opacity="0.06"/><circle cx="658" cy="448" r="1.1" fill="#f3eee3" opacity="0.06"/><circle cx="700" cy="448" r="1.1" fill="#f3eee3" opacity="0.06"/><circle cx="742" cy="448" r="1.1" fill="#f3eee3" opacity="0.06"/><circle cx="784" cy="448" r="1.1" fill="#f3eee3" opacity="0.06"/><circle cx="826" cy="448" r="1.1" fill="#f3eee3" opacity="0.06"/><circle cx="868" cy="448" r="1.1" fill="#f3eee3" opacity="0.06"/><circle cx="910" cy="448" r="1.1" fill="#f3eee3" opacity="0.06"/><circle cx="952" cy="448" r="1.1" fill="#f3eee3" opacity="0.06"/><circle cx="994" cy="448" r="1.1" fill="#f3eee3" opacity="0.06"/><circle cx="1036" cy="448" r="1.1" fill="#f3eee3" opacity="0.06"/><circle cx="1078" cy="448" r="1.1" fill="#f3eee3" opacity="0.06"/><circle cx="1120" cy="448" r="1.1" fill="#f3eee3" opacity="0.06"/><circle cx="1162" cy="448" r="1.1" fill="#f3eee3" opacity="0.06"/><circle cx="1204" cy="448" r="1.1" fill="#f3eee3" opacity="0.06"/><circle cx="1246" cy="448" r="1.1" fill="#f3eee3" opacity="0.06"/><circle cx="70" cy="490" r="1.1" fill="#f3eee3" opacity="0.06"/><circle cx="112" cy="490" r="1.1" fill="#f3eee3" opacity="0.06"/><circle cx="154" cy="490" r="1.1" fill="#f3eee3" opacity="0.06"/><circle cx="196" cy="490" r="1.1" fill="#f3eee3" opacity="0.06"/><circle cx="238" cy="490" r="1.1" fill="#f3eee3" opacity="0.06"/><circle cx="280" cy="490" r="1.1" fill="#f3eee3" opacity="0.06"/><circle cx="322" cy="490" r="1.1" fill="#f3eee3" opacity="0.06"/><circle cx="364" cy="490" r="1.1" fill="#f3eee3" opacity="0.06"/><circle cx="406" cy="490" r="1.1" fill="#f3eee3" opacity="0.06"/><circle cx="448" cy="490" r="1.1" fill="#f3eee3" opacity="0.06"/><circle cx="490" cy="490" r="1.1" fill="#f3eee3" opacity="0.06"/><circle cx="532" cy="490" r="1.1" fill="#f3eee3" opacity="0.06"/><circle cx="574" cy="490" r="1.1" fill="#f3eee3" opacity="0.06"/><circle cx="616" cy="490" r="1.1" fill="#f3eee3" opacity="0.06"/><circle cx="658" cy="490" r="1.1" fill="#f3eee3" opacity="0.06"/><circle cx="700" cy="490" r="1.1" fill="#f3eee3" opacity="0.06"/><circle cx="742" cy="490" r="1.1" fill="#f3eee3" opacity="0.06"/><circle cx="784" cy="490" r="1.1" fill="#f3eee3" opacity="0.06"/><circle cx="826" cy="490" r="1.1" fill="#f3eee3" opacity="0.06"/><circle cx="868" cy="490" r="1.1" fill="#f3eee3" opacity="0.06"/><circle cx="910" cy="490" r="1.1" fill="#f3eee3" opacity="0.06"/><circle cx="952" cy="490" r="1.1" fill="#f3eee3" opacity="0.06"/><circle cx="994" cy="490" r="1.1" fill="#f3eee3" opacity="0.06"/><circle cx="1036" cy="490" r="1.1" fill="#f3eee3" opacity="0.06"/><circle cx="1078" cy="490" r="1.1" fill="#f3eee3" opacity="0.06"/><circle cx="1120" cy="490" r="1.1" fill="#f3eee3" opacity="0.06"/><circle cx="1162" cy="490" r="1.1" fill="#f3eee3" opacity="0.06"/><circle cx="1204" cy="490" r="1.1" fill="#f3eee3" opacity="0.06"/><circle cx="1246" cy="490" r="1.1" fill="#f3eee3" opacity="0.06"/><circle cx="70" cy="532" r="1.1" fill="#f3eee3" opacity="0.06"/><circle cx="112" cy="532" r="1.1" fill="#f3eee3" opacity="0.06"/><circle cx="154" cy="532" r="1.1" fill="#f3eee3" opacity="0.06"/><circle cx="196" cy="532" r="1.1" fill="#f3eee3" opacity="0.06"/><circle cx="238" cy="532" r="1.1" fill="#f3eee3" opacity="0.06"/><circle cx="280" cy="532" r="1.1" fill="#f3eee3" opacity="0.06"/><circle cx="322" cy="532" r="1.1" fill="#f3eee3" opacity="0.06"/><circle cx="364" cy="532" r="1.1" fill="#f3eee3" opacity="0.06"/><circle cx="406" cy="532" r="1.1" fill="#f3eee3" opacity="0.06"/><circle cx="448" cy="532" r="1.1" fill="#f3eee3" opacity="0.06"/><circle cx="490" cy="532" r="1.1" fill="#f3eee3" opacity="0.06"/><circle cx="532" cy="532" r="1.1" fill="#f3eee3" opacity="0.06"/><circle cx="574" cy="532" r="1.1" fill="#f3eee3" opacity="0.06"/><circle cx="616" cy="532" r="1.1" fill="#f3eee3" opacity="0.06"/><circle cx="658" cy="532" r="1.1" fill="#f3eee3" opacity="0.06"/><circle cx="700" cy="532" r="1.1" fill="#f3eee3" opacity="0.06"/><circle cx="742" cy="532" r="1.1" fill="#f3eee3" opacity="0.06"/><circle cx="784" cy="532" r="1.1" fill="#f3eee3" opacity="0.06"/><circle cx="826" cy="532" r="1.1" fill="#f3eee3" opacity="0.06"/><circle cx="868" cy="532" r="1.1" fill="#f3eee3" opacity="0.06"/><circle cx="910" cy="532" r="1.1" fill="#f3eee3" opacity="0.06"/><circle cx="952" cy="532" r="1.1" fill="#f3eee3" opacity="0.06"/><circle cx="994" cy="532" r="1.1" fill="#f3eee3" opacity="0.06"/><circle cx="1036" cy="532" r="1.1" fill="#f3eee3" opacity="0.06"/><circle cx="1078" cy="532" r="1.1" fill="#f3eee3" opacity="0.06"/><circle cx="1120" cy="532" r="1.1" fill="#f3eee3" opacity="0.06"/><circle cx="1162" cy="532" r="1.1" fill="#f3eee3" opacity="0.06"/><circle cx="1204" cy="532" r="1.1" fill="#f3eee3" opacity="0.06"/><circle cx="1246" cy="532" r="1.1" fill="#f3eee3" opacity="0.06"/><circle cx="70" cy="574" r="1.1" fill="#f3eee3" opacity="0.06"/><circle cx="112" cy="574" r="1.1" fill="#f3eee3" opacity="0.06"/><circle cx="154" cy="574" r="1.1" fill="#f3eee3" opacity="0.06"/><circle cx="196" cy="574" r="1.1" fill="#f3eee3" opacity="0.06"/><circle cx="238" cy="574" r="1.1" fill="#f3eee3" opacity="0.06"/><circle cx="280" cy="574" r="1.1" fill="#f3eee3" opacity="0.06"/><circle cx="322" cy="574" r="1.1" fill="#f3eee3" opacity="0.06"/><circle cx="364" cy="574" r="1.1" fill="#f3eee3" opacity="0.06"/><circle cx="406" cy="574" r="1.1" fill="#f3eee3" opacity="0.06"/><circle cx="448" cy="574" r="1.1" fill="#f3eee3" opacity="0.06"/><circle cx="490" cy="574" r="1.1" fill="#f3eee3" opacity="0.06"/><circle cx="532" cy="574" r="1.1" fill="#f3eee3" opacity="0.06"/><circle cx="574" cy="574" r="1.1" fill="#f3eee3" opacity="0.06"/><circle cx="616" cy="574" r="1.1" fill="#f3eee3" opacity="0.06"/><circle cx="658" cy="574" r="1.1" fill="#f3eee3" opacity="0.06"/><circle cx="700" cy="574" r="1.1" fill="#f3eee3" opacity="0.06"/><circle cx="742" cy="574" r="1.1" fill="#f3eee3" opacity="0.06"/><circle cx="784" cy="574" r="1.1" fill="#f3eee3" opacity="0.06"/><circle cx="826" cy="574" r="1.1" fill="#f3eee3" opacity="0.06"/><circle cx="868" cy="574" r="1.1" fill="#f3eee3" opacity="0.06"/><circle cx="910" cy="574" r="1.1" fill="#f3eee3" opacity="0.06"/><circle cx="952" cy="574" r="1.1" fill="#f3eee3" opacity="0.06"/><circle cx="994" cy="574" r="1.1" fill="#f3eee3" opacity="0.06"/><circle cx="1036" cy="574" r="1.1" fill="#f3eee3" opacity="0.06"/><circle cx="1078" cy="574" r="1.1" fill="#f3eee3" opacity="0.06"/><circle cx="1120" cy="574" r="1.1" fill="#f3eee3" opacity="0.06"/><circle cx="1162" cy="574" r="1.1" fill="#f3eee3" opacity="0.06"/><circle cx="1204" cy="574" r="1.1" fill="#f3eee3" opacity="0.06"/><circle cx="1246" cy="574" r="1.1" fill="#f3eee3" opacity="0.06"/><circle cx="70" cy="616" r="1.1" fill="#f3eee3" opacity="0.06"/><circle cx="112" cy="616" r="1.1" fill="#f3eee3" opacity="0.06"/><circle cx="154" cy="616" r="1.1" fill="#f3eee3" opacity="0.06"/><circle cx="196" cy="616" r="1.1" fill="#f3eee3" opacity="0.06"/><circle cx="238" cy="616" r="1.1" fill="#f3eee3" opacity="0.06"/><circle cx="280" cy="616" r="1.1" fill="#f3eee3" opacity="0.06"/><circle cx="322" cy="616" r="1.1" fill="#f3eee3" opacity="0.06"/><circle cx="364" cy="616" r="1.1" fill="#f3eee3" opacity="0.06"/><circle cx="406" cy="616" r="1.1" fill="#f3eee3" opacity="0.06"/><circle cx="448" cy="616" r="1.1" fill="#f3eee3" opacity="0.06"/><circle cx="490" cy="616" r="1.1" fill="#f3eee3" opacity="0.06"/><circle cx="532" cy="616" r="1.1" fill="#f3eee3" opacity="0.06"/><circle cx="574" cy="616" r="1.1" fill="#f3eee3" opacity="0.06"/><circle cx="616" cy="616" r="1.1" fill="#f3eee3" opacity="0.06"/><circle cx="658" cy="616" r="1.1" fill="#f3eee3" opacity="0.06"/><circle cx="700" cy="616" r="1.1" fill="#f3eee3" opacity="0.06"/><circle cx="742" cy="616" r="1.1" fill="#f3eee3" opacity="0.06"/><circle cx="784" cy="616" r="1.1" fill="#f3eee3" opacity="0.06"/><circle cx="826" cy="616" r="1.1" fill="#f3eee3" opacity="0.06"/><circle cx="868" cy="616" r="1.1" fill="#f3eee3" opacity="0.06"/><circle cx="910" cy="616" r="1.1" fill="#f3eee3" opacity="0.06"/><circle cx="952" cy="616" r="1.1" fill="#f3eee3" opacity="0.06"/><circle cx="994" cy="616" r="1.1" fill="#f3eee3" opacity="0.06"/><circle cx="1036" cy="616" r="1.1" fill="#f3eee3" opacity="0.06"/><circle cx="1078" cy="616" r="1.1" fill="#f3eee3" opacity="0.06"/><circle cx="1120" cy="616" r="1.1" fill="#f3eee3" opacity="0.06"/><circle cx="1162" cy="616" r="1.1" fill="#f3eee3" opacity="0.06"/><circle cx="1204" cy="616" r="1.1" fill="#f3eee3" opacity="0.06"/><circle cx="1246" cy="616" r="1.1" fill="#f3eee3" opacity="0.06"/><circle cx="70" cy="658" r="1.1" fill="#f3eee3" opacity="0.06"/><circle cx="112" cy="658" r="1.1" fill="#f3eee3" opacity="0.06"/><circle cx="154" cy="658" r="1.1" fill="#f3eee3" opacity="0.06"/><circle cx="196" cy="658" r="1.1" fill="#f3eee3" opacity="0.06"/><circle cx="238" cy="658" r="1.1" fill="#f3eee3" opacity="0.06"/><circle cx="280" cy="658" r="1.1" fill="#f3eee3" opacity="0.06"/><circle cx="322" cy="658" r="1.1" fill="#f3eee3" opacity="0.06"/><circle cx="364" cy="658" r="1.1" fill="#f3eee3" opacity="0.06"/><circle cx="406" cy="658" r="1.1" fill="#f3eee3" opacity="0.06"/><circle cx="448" cy="658" r="1.1" fill="#f3eee3" opacity="0.06"/><circle cx="490" cy="658" r="1.1" fill="#f3eee3" opacity="0.06"/><circle cx="532" cy="658" r="1.1" fill="#f3eee3" opacity="0.06"/><circle cx="574" cy="658" r="1.1" fill="#f3eee3" opacity="0.06"/><circle cx="616" cy="658" r="1.1" fill="#f3eee3" opacity="0.06"/><circle cx="658" cy="658" r="1.1" fill="#f3eee3" opacity="0.06"/><circle cx="700" cy="658" r="1.1" fill="#f3eee3" opacity="0.06"/><circle cx="742" cy="658" r="1.1" fill="#f3eee3" opacity="0.06"/><circle cx="784" cy="658" r="1.1" fill="#f3eee3" opacity="0.06"/><circle cx="826" cy="658" r="1.1" fill="#f3eee3" opacity="0.06"/><circle cx="868" cy="658" r="1.1" fill="#f3eee3" opacity="0.06"/><circle cx="910" cy="658" r="1.1" fill="#f3eee3" opacity="0.06"/><circle cx="952" cy="658" r="1.1" fill="#f3eee3" opacity="0.06"/><circle cx="994" cy="658" r="1.1" fill="#f3eee3" opacity="0.06"/><circle cx="1036" cy="658" r="1.1" fill="#f3eee3" opacity="0.06"/><circle cx="1078" cy="658" r="1.1" fill="#f3eee3" opacity="0.06"/><circle cx="1120" cy="658" r="1.1" fill="#f3eee3" opacity="0.06"/><circle cx="1162" cy="658" r="1.1" fill="#f3eee3" opacity="0.06"/><circle cx="1204" cy="658" r="1.1" fill="#f3eee3" opacity="0.06"/><circle cx="1246" cy="658" r="1.1" fill="#f3eee3" opacity="0.06"/><circle cx="70" cy="700" r="1.1" fill="#f3eee3" opacity="0.06"/><circle cx="112" cy="700" r="1.1" fill="#f3eee3" opacity="0.06"/><circle cx="154" cy="700" r="1.1" fill="#f3eee3" opacity="0.06"/><circle cx="196" cy="700" r="1.1" fill="#f3eee3" opacity="0.06"/><circle cx="238" cy="700" r="1.1" fill="#f3eee3" opacity="0.06"/><circle cx="280" cy="700" r="1.1" fill="#f3eee3" opacity="0.06"/><circle cx="322" cy="700" r="1.1" fill="#f3eee3" opacity="0.06"/><circle cx="364" cy="700" r="1.1" fill="#f3eee3" opacity="0.06"/><circle cx="406" cy="700" r="1.1" fill="#f3eee3" opacity="0.06"/><circle cx="448" cy="700" r="1.1" fill="#f3eee3" opacity="0.06"/><circle cx="490" cy="700" r="1.1" fill="#f3eee3" opacity="0.06"/><circle cx="532" cy="700" r="1.1" fill="#f3eee3" opacity="0.06"/><circle cx="574" cy="700" r="1.1" fill="#f3eee3" opacity="0.06"/><circle cx="616" cy="700" r="1.1" fill="#f3eee3" opacity="0.06"/><circle cx="658" cy="700" r="1.1" fill="#f3eee3" opacity="0.06"/><circle cx="700" cy="700" r="1.1" fill="#f3eee3" opacity="0.06"/><circle cx="742" cy="700" r="1.1" fill="#f3eee3" opacity="0.06"/><circle cx="784" cy="700" r="1.1" fill="#f3eee3" opacity="0.06"/><circle cx="826" cy="700" r="1.1" fill="#f3eee3" opacity="0.06"/><circle cx="868" cy="700" r="1.1" fill="#f3eee3" opacity="0.06"/><circle cx="910" cy="700" r="1.1" fill="#f3eee3" opacity="0.06"/><circle cx="952" cy="700" r="1.1" fill="#f3eee3" opacity="0.06"/><circle cx="994" cy="700" r="1.1" fill="#f3eee3" opacity="0.06"/><circle cx="1036" cy="700" r="1.1" fill="#f3eee3" opacity="0.06"/><circle cx="1078" cy="700" r="1.1" fill="#f3eee3" opacity="0.06"/><circle cx="1120" cy="700" r="1.1" fill="#f3eee3" opacity="0.06"/><circle cx="1162" cy="700" r="1.1" fill="#f3eee3" opacity="0.06"/><circle cx="1204" cy="700" r="1.1" fill="#f3eee3" opacity="0.06"/><circle cx="1246" cy="700" r="1.1" fill="#f3eee3" opacity="0.06"/><circle cx="70" cy="742" r="1.1" fill="#f3eee3" opacity="0.06"/><circle cx="112" cy="742" r="1.1" fill="#f3eee3" opacity="0.06"/><circle cx="154" cy="742" r="1.1" fill="#f3eee3" opacity="0.06"/><circle cx="196" cy="742" r="1.1" fill="#f3eee3" opacity="0.06"/><circle cx="238" cy="742" r="1.1" fill="#f3eee3" opacity="0.06"/><circle cx="280" cy="742" r="1.1" fill="#f3eee3" opacity="0.06"/><circle cx="322" cy="742" r="1.1" fill="#f3eee3" opacity="0.06"/><circle cx="364" cy="742" r="1.1" fill="#f3eee3" opacity="0.06"/><circle cx="406" cy="742" r="1.1" fill="#f3eee3" opacity="0.06"/><circle cx="448" cy="742" r="1.1" fill="#f3eee3" opacity="0.06"/><circle cx="490" cy="742" r="1.1" fill="#f3eee3" opacity="0.06"/><circle cx="532" cy="742" r="1.1" fill="#f3eee3" opacity="0.06"/><circle cx="574" cy="742" r="1.1" fill="#f3eee3" opacity="0.06"/><circle cx="616" cy="742" r="1.1" fill="#f3eee3" opacity="0.06"/><circle cx="658" cy="742" r="1.1" fill="#f3eee3" opacity="0.06"/><circle cx="700" cy="742" r="1.1" fill="#f3eee3" opacity="0.06"/><circle cx="742" cy="742" r="1.1" fill="#f3eee3" opacity="0.06"/><circle cx="784" cy="742" r="1.1" fill="#f3eee3" opacity="0.06"/><circle cx="826" cy="742" r="1.1" fill="#f3eee3" opacity="0.06"/><circle cx="868" cy="742" r="1.1" fill="#f3eee3" opacity="0.06"/><circle cx="910" cy="742" r="1.1" fill="#f3eee3" opacity="0.06"/><circle cx="952" cy="742" r="1.1" fill="#f3eee3" opacity="0.06"/><circle cx="994" cy="742" r="1.1" fill="#f3eee3" opacity="0.06"/><circle cx="1036" cy="742" r="1.1" fill="#f3eee3" opacity="0.06"/><circle cx="1078" cy="742" r="1.1" fill="#f3eee3" opacity="0.06"/><circle cx="1120" cy="742" r="1.1" fill="#f3eee3" opacity="0.06"/><circle cx="1162" cy="742" r="1.1" fill="#f3eee3" opacity="0.06"/><circle cx="1204" cy="742" r="1.1" fill="#f3eee3" opacity="0.06"/><circle cx="1246" cy="742" r="1.1" fill="#f3eee3" opacity="0.06"/><circle cx="70" cy="784" r="1.1" fill="#f3eee3" opacity="0.06"/><circle cx="112" cy="784" r="1.1" fill="#f3eee3" opacity="0.06"/><circle cx="154" cy="784" r="1.1" fill="#f3eee3" opacity="0.06"/><circle cx="196" cy="784" r="1.1" fill="#f3eee3" opacity="0.06"/><circle cx="238" cy="784" r="1.1" fill="#f3eee3" opacity="0.06"/><circle cx="280" cy="784" r="1.1" fill="#f3eee3" opacity="0.06"/><circle cx="322" cy="784" r="1.1" fill="#f3eee3" opacity="0.06"/><circle cx="364" cy="784" r="1.1" fill="#f3eee3" opacity="0.06"/><circle cx="406" cy="784" r="1.1" fill="#f3eee3" opacity="0.06"/><circle cx="448" cy="784" r="1.1" fill="#f3eee3" opacity="0.06"/><circle cx="490" cy="784" r="1.1" fill="#f3eee3" opacity="0.06"/><circle cx="532" cy="784" r="1.1" fill="#f3eee3" opacity="0.06"/><circle cx="574" cy="784" r="1.1" fill="#f3eee3" opacity="0.06"/><circle cx="616" cy="784" r="1.1" fill="#f3eee3" opacity="0.06"/><circle cx="658" cy="784" r="1.1" fill="#f3eee3" opacity="0.06"/><circle cx="700" cy="784" r="1.1" fill="#f3eee3" opacity="0.06"/><circle cx="742" cy="784" r="1.1" fill="#f3eee3" opacity="0.06"/><circle cx="784" cy="784" r="1.1" fill="#f3eee3" opacity="0.06"/><circle cx="826" cy="784" r="1.1" fill="#f3eee3" opacity="0.06"/><circle cx="868" cy="784" r="1.1" fill="#f3eee3" opacity="0.06"/><circle cx="910" cy="784" r="1.1" fill="#f3eee3" opacity="0.06"/><circle cx="952" cy="784" r="1.1" fill="#f3eee3" opacity="0.06"/><circle cx="994" cy="784" r="1.1" fill="#f3eee3" opacity="0.06"/><circle cx="1036" cy="784" r="1.1" fill="#f3eee3" opacity="0.06"/><circle cx="1078" cy="784" r="1.1" fill="#f3eee3" opacity="0.06"/><circle cx="1120" cy="784" r="1.1" fill="#f3eee3" opacity="0.06"/><circle cx="1162" cy="784" r="1.1" fill="#f3eee3" opacity="0.06"/><circle cx="1204" cy="784" r="1.1" fill="#f3eee3" opacity="0.06"/><circle cx="1246" cy="784" r="1.1" fill="#f3eee3" opacity="0.06"/>
  <rect x="0" y="0" width="1280" height="6" fill="#2540ff"/>
  <text x="76" y="430" font-family="Georgia,'Times New Roman',serif" font-size="122" font-weight="700" fill="#f3eee3" letter-spacing="-4">pdf-vectors</text>
  <rect x="82" y="470" width="150" height="10" fill="#2540ff"/>
  <text x="84" y="545" font-family="ui-monospace,Menlo,monospace" font-size="26" fill="#f3eee3" fill-opacity="0.55" letter-spacing="6">SEMANTIC PDF SEARCH</text>
</svg>